<svg width="95" height="95" viewBox="0 0 95 95" fill="none" xmlns="http://www.w3.org/2000/svg">
<path d="M25 36C25 29.9249 29.9249 25 36 25H58C64.0751 25 69 29.9249 69 36V58C69 64.0751 64.0751 69 58 69H36C29.9249 69 25 64.0751 25 58V36Z" fill="#2B2D31"/>
<path d="M58.247 48.2657C53.6744 50.0322 50.0319 53.6747 48.2654 58.2473C47.8433 59.3338 46.3426 59.3338 45.9205 58.2473C44.1462 53.6747 40.4959 50.0322 35.9233 48.2657C34.8368 47.8436 34.8368 46.3428 35.9233 45.9207C40.5037 44.1464 44.1462 40.4961 45.9205 35.9235C46.3426 34.837 47.8433 34.837 48.2654 35.9235C50.0319 40.5039 53.6744 44.1464 58.247 45.9207C59.3335 46.3428 59.3335 47.8436 58.247 48.2657Z" fill="white"/>
<rect x="25" y="25" width="44" height="44" rx="22" fill="#2B2D31"/>
<path d="M58.1208 38.9128C56.8548 39.4013 55.8503 40.4058 55.3618 41.6718C55.2448 41.9745 54.832 41.9745 54.7151 41.6718C54.2266 40.4058 53.2152 39.4013 51.9492 38.9128C51.6465 38.7959 51.6465 38.3831 51.9492 38.2661C53.2152 37.7776 54.2197 36.7662 54.7151 35.5002C54.832 35.1975 55.2448 35.1975 55.3618 35.5002C55.8503 36.7662 56.8548 37.7707 58.1208 38.2661C58.4235 38.3831 58.4235 38.7959 58.1208 38.9128Z" fill="white"/>
<path d="M55.2884 49.7382C51.4124 51.2356 48.3248 54.3231 46.8274 58.1992C46.4696 59.1201 45.1975 59.1201 44.8397 58.1992C43.3357 54.3231 40.2415 51.2356 36.3655 49.7382C35.4446 49.3804 35.4446 48.1083 36.3655 47.7505C40.2482 46.2465 43.3357 43.1523 44.8397 39.2763C45.1975 38.3553 46.4696 38.3553 46.8274 39.2763C48.3248 43.1589 51.4124 46.2465 55.2884 47.7505C56.2093 48.1083 56.2093 49.3804 55.2884 49.7382Z" fill="white"/>
</svg>
